<svg xmlns="http://www.w3.org/2000/svg" width="1000" height="300" viewBox="0 0 1000 300">
			<defs>
				<radialGradient id="RadialGradient1">
					<stop offset="0%" stop-color="#03138c"></stop>
					<stop offset="100%" stop-color="#7d8cff"></stop>
				</radialGradient>
			</defs>
		<line x1="50" x2="50" y1="237.49607215303513" y2="82.06687986164094" style="stroke: #03138c; stroke-width:2;"></line><line x1="100" x2="100" y1="192.5281010181186" y2="120.85451110905852" style="stroke: #03138c; stroke-width:2;"></line><line x1="150" x2="150" y1="131.26638355222747" y2="162.55327656027362" style="stroke: #03138c; stroke-width:2;"></line><line x1="200" x2="200" y1="77.28648488767821" y2="203.15056309764563" style="stroke: #03138c; stroke-width:2;"></line><line x1="250" x2="250" y1="49.950651286691254" y2="236.66673658613155" style="stroke: #03138c; stroke-width:2;"></line><line x1="300" x2="300" y1="54.321335884235694" y2="251.85900400326324" style="stroke: #03138c; stroke-width:2;"></line><line x1="350" x2="350" y1="82.06687986164094" y2="237.49607215303521" style="stroke: #03138c; stroke-width:2;"></line><line x1="400" x2="400" y1="120.85451110905852" y2="192.5281010181187" style="stroke: #03138c; stroke-width:2;"></line><line x1="450" x2="450" y1="162.55327656027362" y2="131.26638355222758" style="stroke: #03138c; stroke-width:2;"></line><line x1="500" x2="500" y1="203.15056309764563" y2="77.28648488767836" style="stroke: #03138c; stroke-width:2;"></line><line x1="550" x2="550" y1="236.66673658613155" y2="49.95065128669121" style="stroke: #03138c; stroke-width:2;"></line><line x1="600" x2="600" y1="251.85900400326324" y2="54.32133588423572" style="stroke: #03138c; stroke-width:2;"></line><line x1="650" x2="650" y1="237.49607215303521" y2="82.06687986164097" style="stroke: #03138c; stroke-width:2;"></line><circle cx="150" cy="162.55327656027362" r="20.061558297024312" style="fill: url(#RadialGradient1); stroke: none;"></circle><circle cx="450" cy="162.55327656027362" r="20.061558297024312" style="fill: url(#RadialGradient1); stroke: none;"></circle><circle cx="100" cy="120.85451110905852" r="20.332097867513994" style="fill: url(#RadialGradient1); stroke: none;"></circle><circle cx="400" cy="120.85451110905852" r="20.332097867513994" style="fill: url(#RadialGradient1); stroke: none;"></circle><circle cx="200" cy="203.15056309764563" r="21.114270192715143" style="fill: url(#RadialGradient1); stroke: none;"></circle><circle cx="500" cy="203.15056309764563" r="21.114270192715143" style="fill: url(#RadialGradient1); stroke: none;"></circle><circle cx="650" cy="82.06687986164097" r="21.85339804475081" style="fill: url(#RadialGradient1); stroke: none;"></circle><circle cx="50" cy="82.06687986164094" r="21.85339804475081" style="fill: url(#RadialGradient1); stroke: none;"></circle><circle cx="350" cy="82.06687986164094" r="21.85339804475081" style="fill: url(#RadialGradient1); stroke: none;"></circle><circle cx="250" cy="236.66673658613155" r="23.208160252273498" style="fill: url(#RadialGradient1); stroke: none;"></circle><circle cx="550" cy="236.66673658613155" r="23.208160252273498" style="fill: url(#RadialGradient1); stroke: none;"></circle><circle cx="600" cy="54.32133588423572" r="24.21782767479884" style="fill: url(#RadialGradient1); stroke: none;"></circle><circle cx="300" cy="54.321335884235694" r="24.217827674798848" style="fill: url(#RadialGradient1); stroke: none;"></circle><circle cx="300" cy="251.85900400326324" r="25.782172325201152" style="fill: url(#RadialGradient1); stroke: none;"></circle><circle cx="600" cy="251.85900400326324" r="25.782172325201152" style="fill: url(#RadialGradient1); stroke: none;"></circle><circle cx="550" cy="49.95065128669121" r="26.7918397477265" style="fill: url(#RadialGradient1); stroke: none;"></circle><circle cx="250" cy="49.950651286691254" r="26.791839747726502" style="fill: url(#RadialGradient1); stroke: none;"></circle><circle cx="350" cy="237.49607215303521" r="28.146601955249185" style="fill: url(#RadialGradient1); stroke: none;"></circle><circle cx="650" cy="237.49607215303521" r="28.146601955249185" style="fill: url(#RadialGradient1); stroke: none;"></circle><circle cx="50" cy="237.49607215303513" r="28.146601955249185" style="fill: url(#RadialGradient1); stroke: none;"></circle><circle cx="200" cy="77.28648488767821" r="28.885729807284854" style="fill: url(#RadialGradient1); stroke: none;"></circle><circle cx="500" cy="77.28648488767836" r="28.88572980728486" style="fill: url(#RadialGradient1); stroke: none;"></circle><circle cx="400" cy="192.5281010181187" r="29.667902132486006" style="fill: url(#RadialGradient1); stroke: none;"></circle><circle cx="100" cy="192.5281010181186" r="29.667902132486006" style="fill: url(#RadialGradient1); stroke: none;"></circle><circle cx="150" cy="131.26638355222747" r="29.938441702975688" style="fill: url(#RadialGradient1); stroke: none;"></circle><circle cx="450" cy="131.26638355222758" r="29.938441702975688" style="fill: url(#RadialGradient1); stroke: none;"></circle></svg>